<svg xmlns="http://www.w3.org/2000/svg" viewBox="0 0 1280 380" width="100%" height="100%" style="background-color:#020617;font-family:system-ui,-apple-system,sans-serif;">
  <defs>
    <pattern id="dots" x="0" y="0" width="24" height="24" patternUnits="userSpaceOnUse">
      <circle cx="2" cy="2" r="1.5" fill="#1E293B" opacity="0.4"/>
    </pattern>
    <pattern id="grid" x="0" y="0" width="48" height="48" patternUnits="userSpaceOnUse">
      <rect width="48" height="48" fill="none" stroke="#0F172A" stroke-width="1"/>
    </pattern>
    <filter id="shadow" x="-10%" y="-10%" width="120%" height="120%">
      <feDropShadow dx="0" dy="4" stdDeviation="6" flood-color="#000" flood-opacity="0.3"/>
    </filter>
    <filter id="glow-cyan" x="-20%" y="-20%" width="140%" height="140%">
      <feGaussianBlur stdDeviation="10" result="blur"/>
      <feComposite in="SourceGraphic" in2="blur" operator="over"/>
    </filter>
    <linearGradient id="card-border" x1="0%" y1="0%" x2="100%" y2="100%">
      <stop offset="0%" stop-color="#334155" stop-opacity="0.8"/>
      <stop offset="100%" stop-color="#0F172A" stop-opacity="0.2"/>
    </linearGradient>
    <marker id="arrow" viewBox="0 0 10 10" refX="8" refY="5" markerWidth="6" markerHeight="6" orient="auto">
      <path d="M 0 1 L 9 5 L 0 9 z" fill="#475569"/>
    </marker>
    <marker id="arrow-blue" viewBox="0 0 10 10" refX="8" refY="5" markerWidth="6" markerHeight="6" orient="auto">
      <path d="M 0 1 L 9 5 L 0 9 z" fill="#0EA5E9"/>
    </marker>
  </defs>
  <rect width="100%" height="100%" fill="#020617"/>
  <rect width="100%" height="100%" fill="url(#grid)"/>
  <rect width="100%" height="100%" fill="url(#dots)"/>
  <circle cx="950" cy="180" r="300" fill="#0EA5E9" opacity="0.04" filter="blur(60px)"/>
  <circle cx="200" cy="180" r="250" fill="#A855F7" opacity="0.03" filter="blur(60px)"/>
  <g transform="translate(80, 0)">
    <rect x="0" y="85" width="265" height="24" rx="12" fill="#0EA5E9" fill-opacity="0.1" stroke="#0EA5E9" stroke-width="1" stroke-opacity="0.3"/>
    <circle cx="12" cy="97" r="4" fill="#0EA5E9" filter="url(#glow-cyan)"/>
    <text x="26" y="101" font-size="11" font-weight="700" fill="#0EA5E9" letter-spacing="0.1em">TYPESCRIPT INTEGRATION BACKEND</text>
    <text x="0" y="150" font-size="42" font-weight="800" fill="#F8FAFC" letter-spacing="-0.02em">integration-gateway</text>
    <text x="0" y="188" font-size="16" font-weight="400" fill="#94A3B8">Webhook ingestion, payload normalization, idempotent processing,</text>
    <text x="0" y="214" font-size="16" font-weight="400" fill="#94A3B8">retries, replay, and delivery tracking.</text>
    <g transform="translate(0, 255)">
      <rect x="0" y="0" width="118" height="34" rx="8" fill="#0F172A" stroke="#1E293B" stroke-width="1.5"/>
      <circle cx="16" cy="17" r="4" fill="#3B82F6"/>
      <text x="30" y="22" font-size="13" font-weight="600" fill="#CBD5E1">TypeScript</text>
      <rect x="130" y="0" width="90" height="34" rx="8" fill="#0F172A" stroke="#1E293B" stroke-width="1.5"/>
      <circle cx="146" cy="17" r="4" fill="#10B981"/>
      <text x="160" y="22" font-size="13" font-weight="600" fill="#CBD5E1">Fastify</text>
      <rect x="232" y="0" width="126" height="34" rx="8" fill="#0F172A" stroke="#1E293B" stroke-width="1.5"/>
      <circle cx="248" cy="17" r="4" fill="#F59E0B"/>
      <text x="262" y="22" font-size="13" font-weight="600" fill="#CBD5E1">PostgreSQL</text>
    </g>
    <g transform="translate(0, 301)">
      <rect x="0" y="0" width="114" height="34" rx="8" fill="#0F172A" stroke="#1E293B" stroke-width="1.5"/>
      <circle cx="16" cy="17" r="4" fill="#F97316"/>
      <text x="30" y="22" font-size="13" font-weight="600" fill="#CBD5E1">RabbitMQ</text>
      <rect x="126" y="0" width="88" height="34" rx="8" fill="#0F172A" stroke="#1E293B" stroke-width="1.5"/>
      <circle cx="142" cy="17" r="4" fill="#A855F7"/>
      <text x="156" y="22" font-size="13" font-weight="600" fill="#CBD5E1">Redis</text>
      <rect x="226" y="0" width="94" height="34" rx="8" fill="#0F172A" stroke="#1E293B" stroke-width="1.5"/>
      <circle cx="242" cy="17" r="4" fill="#0EA5E9"/>
      <text x="256" y="22" font-size="13" font-weight="600" fill="#CBD5E1">Docker</text>
    </g>
  </g>
  <g transform="translate(640, 40)">
    <rect width="620" height="300" rx="16" fill="#0B1120" stroke="url(#card-border)" stroke-width="1.5" filter="url(#shadow)"/>
    <text x="30" y="32" font-size="11" font-weight="700" fill="#64748B" letter-spacing="0.1em">SYSTEM SNAPSHOT</text>
    <path d="M 30 42 L 530 42" stroke="#1E293B" stroke-width="1" stroke-dasharray="4 4"/>
    <path d="M 190 90 L 220 90" fill="none" stroke="#0EA5E9" stroke-width="2" marker-end="url(#arrow-blue)"/>
    <path d="M 380 90 L 410 90" fill="none" stroke="#475569" stroke-width="2" marker-end="url(#arrow)"/>
    <path d="M 115 120 L 115 170" fill="none" stroke="#475569" stroke-width="2" stroke-dasharray="4 4" marker-end="url(#arrow)"/>
    <path d="M 485 120 L 485 170" fill="none" stroke="#475569" stroke-width="2" stroke-dasharray="4 4" marker-end="url(#arrow)"/>
    <path d="M 305 120 L 305 170" fill="none" stroke="#475569" stroke-width="2" marker-end="url(#arrow)"/>
    <path d="M 410 200 L 380 200" fill="none" stroke="#475569" stroke-width="2" marker-end="url(#arrow)"/>
    <g transform="translate(40, 66)">
      <rect width="150" height="48" rx="8" fill="#1E293B" stroke="#0EA5E9" stroke-width="1.5" filter="url(#shadow)"/>
      <rect x="8" y="8" width="32" height="32" rx="6" fill="#0EA5E9" fill-opacity="0.15"/>
      <svg x="12" y="12" width="24" height="24" viewBox="0 0 24 24" fill="none" stroke="#0EA5E9" stroke-width="2" stroke-linecap="round" stroke-linejoin="round">
        <path d="M10 13a5 5 0 0 0 7.54.54l3-3a5 5 0 0 0-7.07-7.07l-1.72 1.71"></path>
        <path d="M14 11a5 5 0 0 0-7.54-.54l-3 3a5 5 0 0 0 7.07 7.07l1.71-1.71"></path>
      </svg>
      <text x="48" y="29" font-size="13" font-weight="600" fill="#F8FAFC">Webhook API</text>
    </g>
    <g transform="translate(230, 66)">
      <rect width="150" height="48" rx="8" fill="#1E293B" stroke="#334155" stroke-width="1.5" filter="url(#shadow)"/>
      <rect x="8" y="8" width="32" height="32" rx="6" fill="#3B82F6" fill-opacity="0.15"/>
      <svg x="12" y="12" width="24" height="24" viewBox="0 0 24 24" fill="none" stroke="#3B82F6" stroke-width="2" stroke-linecap="round" stroke-linejoin="round">
        <polygon points="12 2 2 7 12 12 22 7 12 2"></polygon>
        <polyline points="2 17 12 22 22 17"></polyline>
        <polyline points="2 12 12 17 22 12"></polyline>
      </svg>
      <text x="48" y="29" font-size="13" font-weight="600" fill="#F8FAFC">Normalizer</text>
    </g>
    <g transform="translate(420, 66)">
      <rect width="150" height="48" rx="8" fill="#1E293B" stroke="#334155" stroke-width="1.5" filter="url(#shadow)"/>
      <rect x="8" y="8" width="32" height="32" rx="6" fill="#F97316" fill-opacity="0.15"/>
      <svg x="12" y="12" width="24" height="24" viewBox="0 0 24 24" fill="none" stroke="#F97316" stroke-width="2" stroke-linecap="round" stroke-linejoin="round">
        <path d="M4 22h14a2 2 0 0 0 2-2V7l-5-5H6a2 2 0 0 0-2 2v4"></path>
        <path d="M14 2v4a2 2 0 0 0 2 2h4"></path>
        <path d="M3 15h6"></path>
        <path d="M6 12l3 3-3 3"></path>
      </svg>
      <text x="48" y="29" font-size="13" font-weight="600" fill="#F8FAFC">RabbitMQ</text>
    </g>
    <g transform="translate(40, 176)">
      <rect width="150" height="48" rx="8" fill="#1E293B" stroke="#334155" stroke-width="1.5" filter="url(#shadow)"/>
      <rect x="8" y="8" width="32" height="32" rx="6" fill="#A855F7" fill-opacity="0.15"/>
      <svg x="12" y="12" width="24" height="24" viewBox="0 0 24 24" fill="none" stroke="#A855F7" stroke-width="2" stroke-linecap="round" stroke-linejoin="round">
        <ellipse cx="12" cy="5" rx="9" ry="3"></ellipse>
        <path d="M21 12c0 1.66-4 3-9 3s-9-1.34-9-3"></path>
        <path d="M3 5v14c0 1.66 4 3 9 3s9-1.34 9-3V5"></path>
      </svg>
      <text x="48" y="29" font-size="13" font-weight="600" fill="#F8FAFC">Redis Cache</text>
    </g>
    <g transform="translate(230, 176)">
      <rect width="150" height="48" rx="8" fill="#1E293B" stroke="#334155" stroke-width="1.5" filter="url(#shadow)"/>
      <rect x="8" y="8" width="32" height="32" rx="6" fill="#F59E0B" fill-opacity="0.15"/>
      <svg x="12" y="12" width="24" height="24" viewBox="0 0 24 24" fill="none" stroke="#F59E0B" stroke-width="2" stroke-linecap="round" stroke-linejoin="round">
        <ellipse cx="12" cy="5" rx="9" ry="3"></ellipse>
        <path d="M21 12c0 1.66-4 3-9 3s-9-1.34-9-3"></path>
        <path d="M3 5v14c0 1.66 4 3 9 3s9-1.34 9-3V5"></path>
      </svg>
      <text x="48" y="29" font-size="13" font-weight="600" fill="#F8FAFC">PostgreSQL</text>
    </g>
    <g transform="translate(420, 176)">
      <rect width="150" height="48" rx="8" fill="#1E293B" stroke="#334155" stroke-width="1.5" filter="url(#shadow)"/>
      <rect x="8" y="8" width="32" height="32" rx="6" fill="#10B981" fill-opacity="0.15"/>
      <svg x="12" y="12" width="24" height="24" viewBox="0 0 24 24" fill="none" stroke="#10B981" stroke-width="2" stroke-linecap="round" stroke-linejoin="round">
        <circle cx="12" cy="12" r="3"></circle>
        <path d="M19.4 15a1.65 1.65 0 0 0 .33 1.82l.06.06a2 2 0 0 1 0 2.83 2 2 0 0 1-2.83 0l-.06-.06a1.65 1.65 0 0 0-1.82-.33 1.65 1.65 0 0 0-1 1.51V21a2 2 0 0 1-2 2 2 2 0 0 1-2-2v-.09A1.65 1.65 0 0 0 9 19.4a1.65 1.65 0 0 0-1.82.33l-.06.06a2 2 0 0 1-2.83 0 2 2 0 0 1 0-2.83l.06-.06a1.65 1.65 0 0 0 .33-1.82 1.65 1.65 0 0 0-1.51-1H3a2 2 0 0 1-2-2 2 2 0 0 1 2-2h.09A1.65 1.65 0 0 0 4.6 9a1.65 1.65 0 0 0-.33-1.82l-.06-.06a2 2 0 0 1 0-2.83 2 2 0 0 1 2.83 0l.06.06a1.65 1.65 0 0 0 1.82.33H9a1.65 1.65 0 0 0 1-1.51V3a2 2 0 0 1 2-2 2 2 0 0 1 2 2v.09a1.65 1.65 0 0 0 1 1.51 1.65 1.65 0 0 0 1.82-.33l.06-.06a2 2 0 0 1 2.83 0 2 2 0 0 1 0 2.83l-.06.06a1.65 1.65 0 0 0-.33 1.82V9a1.65 1.65 0 0 0 1.51 1H21a2 2 0 0 1 2 2 2 2 0 0 1-2 2h-.09a1.65 1.65 0 0 0-1.51 1z"></path>
      </svg>
      <text x="48" y="29" font-size="13" font-weight="600" fill="#F8FAFC">Worker</text>
    </g>
  </g>
</svg>
